<svg width="21" height="21" viewBox="0 0 21 21" fill="none" xmlns="http://www.w3.org/2000/svg">
<g clip-path="url(#clip0_536_1857)">
<path d="M13.3809 17.5625V15.8899C13.3809 15.0027 13.0285 14.1518 12.4011 13.5245C11.7738 12.8971 10.9229 12.5447 10.0357 12.5447H5.01781C4.1306 12.5447 3.27973 12.8971 2.65237 13.5245C2.02502 14.1518 1.67258 15.0027 1.67258 15.8899V17.5625" stroke="white" stroke-width="1.67262" stroke-linecap="round" stroke-linejoin="round"/>
<path d="M7.5268 9.19939C9.37433 9.19939 10.872 7.70167 10.872 5.85415C10.872 4.00663 9.37433 2.50891 7.5268 2.50891C5.67928 2.50891 4.18156 4.00663 4.18156 5.85415C4.18156 7.70167 5.67928 9.19939 7.5268 9.19939Z" stroke="white" stroke-width="1.67262" stroke-linecap="round" stroke-linejoin="round"/>
<path d="M18.3988 17.5626V15.89C18.3983 15.1488 18.1516 14.4287 17.6975 13.8429C17.2434 13.2571 16.6076 12.8387 15.8899 12.6534" stroke="white" stroke-width="1.67262" stroke-linecap="round" stroke-linejoin="round"/>
<path d="M13.381 2.61768C14.1006 2.80192 14.7384 3.2204 15.1938 3.80717C15.6493 4.39393 15.8965 5.11559 15.8965 5.85838C15.8965 6.60116 15.6493 7.32282 15.1938 7.90958C14.7384 8.49635 14.1006 8.91483 13.381 9.09907" stroke="white" stroke-width="1.67262" stroke-linecap="round" stroke-linejoin="round"/>
</g>
<defs>
<clipPath id="clip0_536_1857">
<rect width="20.0714" height="20.0714" fill="white"/>
</clipPath>
</defs>
</svg>
