<svg width="19" height="19" viewBox="0 0 19 19" fill="none" xmlns="http://www.w3.org/2000/svg">
<path d="M11.4176 1.52234H4.56703C4.16327 1.52234 3.77606 1.68273 3.49056 1.96822C3.20507 2.25372 3.04468 2.64093 3.04468 3.04469V15.2235C3.04468 15.6272 3.20507 16.0144 3.49056 16.2999C3.77606 16.5854 4.16327 16.7458 4.56703 16.7458H13.7011C14.1049 16.7458 14.4921 16.5854 14.7776 16.2999C15.0631 16.0144 15.2235 15.6272 15.2235 15.2235V5.32821L11.4176 1.52234Z" stroke="#364153" stroke-width="1.52235" stroke-linecap="round" stroke-linejoin="round"/>
<path d="M10.6565 1.52234V4.56703C10.6565 4.97079 10.8169 5.358 11.1024 5.6435C11.3879 5.92899 11.7751 6.08938 12.1788 6.08938H15.2235" stroke="#364153" stroke-width="1.52235" stroke-linecap="round" stroke-linejoin="round"/>
<path d="M7.6117 6.85059H6.08936" stroke="#364153" stroke-width="1.52235" stroke-linecap="round" stroke-linejoin="round"/>
<path d="M12.1787 9.89526H6.08936" stroke="#364153" stroke-width="1.52235" stroke-linecap="round" stroke-linejoin="round"/>
<path d="M12.1787 12.9399H6.08936" stroke="#364153" stroke-width="1.52235" stroke-linecap="round" stroke-linejoin="round"/>
</svg>
