<svg width="19" height="19" viewBox="0 0 19 19" fill="none" xmlns="http://www.w3.org/2000/svg">
<path d="M9.30191 1.52222H8.96699C8.56324 1.52222 8.17603 1.68261 7.89053 1.9681C7.60504 2.2536 7.44465 2.64081 7.44465 3.04456V3.18158C7.44437 3.44854 7.3739 3.71074 7.2403 3.94186C7.1067 4.17299 6.91467 4.36492 6.68347 4.49841L6.35617 4.6887C6.12474 4.82231 5.86222 4.89266 5.595 4.89266C5.32777 4.89266 5.06525 4.82231 4.83382 4.6887L4.71965 4.62781C4.37032 4.42629 3.9553 4.37163 3.56571 4.47581C3.17611 4.57998 2.84377 4.83449 2.64164 5.18346L2.47418 5.47271C2.27267 5.82204 2.218 6.23705 2.32218 6.62665C2.42636 7.01624 2.68087 7.34858 3.02984 7.55071L3.14402 7.62683C3.3741 7.75966 3.56542 7.9504 3.69895 8.18008C3.83248 8.40975 3.90359 8.67038 3.90519 8.93605V9.32425C3.90625 9.5925 3.83642 9.85627 3.70275 10.0889C3.56908 10.3214 3.37633 10.5146 3.14402 10.6487L3.02984 10.7172C2.68087 10.9193 2.42636 11.2517 2.32218 11.6413C2.218 12.0309 2.27267 12.4459 2.47418 12.7952L2.64164 13.0844C2.84377 13.4334 3.17611 13.6879 3.56571 13.7921C3.9553 13.8963 4.37032 13.8416 4.71965 13.6401L4.83382 13.5792C5.06525 13.4456 5.32777 13.3753 5.595 13.3753C5.86222 13.3753 6.12474 13.4456 6.35617 13.5792L6.68347 13.7695C6.91467 13.903 7.1067 14.0949 7.2403 14.326C7.3739 14.5572 7.44437 14.8194 7.44465 15.0863V15.2233C7.44465 15.6271 7.60504 16.0143 7.89053 16.2998C8.17603 16.5853 8.56324 16.7457 8.96699 16.7457H9.30191C9.70566 16.7457 10.0929 16.5853 10.3784 16.2998C10.6639 16.0143 10.8243 15.6271 10.8243 15.2233V15.0863C10.8245 14.8194 10.895 14.5572 11.0286 14.326C11.1622 14.0949 11.3542 13.903 11.5854 13.7695L11.9127 13.5792C12.1442 13.4456 12.4067 13.3753 12.6739 13.3753C12.9411 13.3753 13.2037 13.4456 13.4351 13.5792L13.5493 13.6401C13.8986 13.8416 14.3136 13.8963 14.7032 13.7921C15.0928 13.6879 15.4251 13.4334 15.6273 13.0844L15.7947 12.7876C15.9962 12.4383 16.0509 12.0232 15.9467 11.6337C15.8425 11.2441 15.588 10.9117 15.2391 10.7096L15.1249 10.6487C14.8926 10.5146 14.6998 10.3214 14.5662 10.0889C14.4325 9.85627 14.3627 9.5925 14.3637 9.32425V8.94366C14.3627 8.67541 14.4325 8.41164 14.5662 8.17906C14.6998 7.94648 14.8926 7.75334 15.1249 7.61922L15.2391 7.55071C15.588 7.34858 15.8425 7.01624 15.9467 6.62665C16.0509 6.23705 15.9962 5.82204 15.7947 5.47271L15.6273 5.18346C15.4251 4.83449 15.0928 4.57998 14.7032 4.47581C14.3136 4.37163 13.8986 4.42629 13.5493 4.62781L13.4351 4.6887C13.2037 4.82231 12.9411 4.89266 12.6739 4.89266C12.4067 4.89266 12.1442 4.82231 11.9127 4.6887L11.5854 4.49841C11.3542 4.36492 11.1622 4.17299 11.0286 3.94186C10.895 3.71074 10.8245 3.44854 10.8243 3.18158V3.04456C10.8243 2.64081 10.6639 2.2536 10.3784 1.9681C10.0929 1.68261 9.70566 1.52222 9.30191 1.52222Z" stroke="#4A5565" stroke-width="1.52235" stroke-linecap="round" stroke-linejoin="round"/>
<path d="M9.13386 11.4174C10.395 11.4174 11.4174 10.395 11.4174 9.13386C11.4174 7.87271 10.395 6.85034 9.13386 6.85034C7.87271 6.85034 6.85034 7.87271 6.85034 9.13386C6.85034 10.395 7.87271 11.4174 9.13386 11.4174Z" stroke="#4A5565" stroke-width="1.52235" stroke-linecap="round" stroke-linejoin="round"/>
</svg>
