<svg id="Layer_1" data-name="Layer 1" xmlns="http://www.w3.org/2000/svg" xmlns:xlink="http://www.w3.org/1999/xlink" viewBox="0 0 1080 1080"><defs><style>.cls-1,.cls-10,.cls-11,.cls-12,.cls-13,.cls-14,.cls-15,.cls-2,.cls-3,.cls-4,.cls-5,.cls-6,.cls-7,.cls-8,.cls-9{fill-rule:evenodd;}.cls-1{fill:url(#linear-gradient);}.cls-2{fill:url(#linear-gradient-2);}.cls-3{fill:url(#linear-gradient-3);}.cls-4{fill:#f0bb2e;}.cls-5{fill:#b05615;}.cls-6{fill:url(#linear-gradient-4);}.cls-7{fill:url(#linear-gradient-5);}.cls-8{fill:url(#linear-gradient-6);}.cls-9{fill:url(#linear-gradient-7);}.cls-10{fill:url(#linear-gradient-8);}.cls-11{fill:url(#linear-gradient-9);}.cls-12{fill:url(#linear-gradient-10);}.cls-13{fill:#851a57;}.cls-14{fill:url(#linear-gradient-11);}.cls-15{fill:url(#linear-gradient-12);}</style><linearGradient id="linear-gradient" x1="400.57" y1="221.09" x2="517.96" y2="221.09" gradientUnits="userSpaceOnUse"><stop offset="0" stop-color="#e480c4"/><stop offset="1" stop-color="#ea309d"/></linearGradient><linearGradient id="linear-gradient-2" x1="517.96" y1="221.09" x2="677.61" y2="221.09" xlink:href="#linear-gradient"/><linearGradient id="linear-gradient-3" x1="400.57" y1="274.3" x2="610.83" y2="274.3" gradientUnits="userSpaceOnUse"><stop offset="0" stop-color="#d86fb3"/><stop offset="0.96" stop-color="#912565"/><stop offset="1" stop-color="#ea309d"/></linearGradient><linearGradient id="linear-gradient-4" x1="7.04" y1="533.04" x2="379.17" y2="533.04" gradientUnits="userSpaceOnUse"><stop offset="0" stop-color="#c6621a"/><stop offset="1" stop-color="#cda629"/></linearGradient><linearGradient id="linear-gradient-5" x1="15.26" y1="502.63" x2="379.17" y2="502.63" gradientUnits="userSpaceOnUse"><stop offset="0" stop-color="#df6d1c"/><stop offset="1" stop-color="#f5d235"/></linearGradient><linearGradient id="linear-gradient-6" x1="297" y1="739.04" x2="593.61" y2="739.04" xlink:href="#linear-gradient-5"/><linearGradient id="linear-gradient-7" x1="239.87" y1="777" x2="409.7" y2="777" gradientUnits="userSpaceOnUse"><stop offset="0" stop-color="#cda629"/><stop offset="1" stop-color="#c6621a"/></linearGradient><linearGradient id="linear-gradient-8" x1="239.87" y1="843.91" x2="593.61" y2="843.91" xlink:href="#linear-gradient-4"/><linearGradient id="linear-gradient-9" x1="944.88" y1="1042.06" x2="562.97" y2="774.41" gradientUnits="userSpaceOnUse"><stop offset="0" stop-color="#d86fb3"/><stop offset="1" stop-color="#751a51"/></linearGradient><linearGradient id="linear-gradient-10" x1="878.97" y1="952.43" x2="611.32" y2="744.25" xlink:href="#linear-gradient"/><linearGradient id="linear-gradient-11" x1="616.93" y1="451.9" x2="706.15" y2="703.9" xlink:href="#linear-gradient-9"/><linearGradient id="linear-gradient-12" x1="670.54" y1="449.79" x2="822.36" y2="847.35" xlink:href="#linear-gradient"/></defs><title>favicon</title><polygon class="cls-1" points="400.56 388.04 517.96 54.13 517.96 160.56 400.56 388.04"/><polygon class="cls-2" points="677.61 388.04 610.83 388.04 517.96 160.56 517.96 54.13 677.61 388.04"/><polygon class="cls-3" points="400.56 388.04 431.22 388.04 517.96 262.44 561.13 388.04 610.83 388.04 517.96 160.56 400.56 388.04"/><polygon class="cls-4" points="1072.96 403.89 19.96 383.61 194.22 431.87 1072.96 403.89"/><polygon class="cls-5" points="243 467.87 194.22 431.87 1072.96 403.89 243 467.87"/><polygon class="cls-6" points="7.04 411.39 342.78 667.43 379.17 566.48 346.3 621.65 15.26 398.64 7.04 411.39"/><polygon class="cls-7" points="379.17 566.48 194.22 431.87 19.96 383.61 15.26 398.64 346.3 621.65 379.17 566.48"/><polygon class="cls-8" points="409.7 576.65 593.61 703.43 297 901.43 409.7 576.65"/><polygon class="cls-9" points="239.87 984.39 390.13 569.61 409.7 576.65 297 901.43 239.87 984.39"/><polygon class="cls-10" points="546.46 769.17 593.61 703.43 297 901.43 239.87 984.39 546.46 769.17"/><polygon class="cls-11" points="562.3 756.65 546.46 780.13 905.87 1022.74 929.35 1025.87 562.3 756.65"/><polygon class="cls-12" points="605.35 707.35 562.3 756.65 929.35 1025.87 776.74 822.39 605.35 707.35"/><polyline class="cls-13" points="699.43 442.72 695.03 433.02 588.07 441.27 597.78 454.56"/><polygon class="cls-13" points="565.75 394.12 561.13 388.04 677.42 387.87 681.27 396.35 565.75 394.12"/><polygon class="cls-14" points="631.85 450.11 776.74 822.39 701.61 771.96 597.78 454.56 631.85 450.11"/><polygon class="cls-15" points="929.35 1025.87 699.43 442.72 631.85 450.11 776.74 822.39 929.35 1025.87"/></svg>